<?xml version="1.0" standalone="no"?>
<!DOCTYPE svg PUBLIC "-//W3C//DTD SVG 20010904//EN"
 "http://www.w3.org/TR/2001/REC-SVG-20010904/DTD/svg10.dtd">
<svg version="1.0" xmlns="http://www.w3.org/2000/svg"
 width="940.000000pt" height="788.000000pt" viewBox="0 0 940.000000 788.000000"
 preserveAspectRatio="xMidYMid meet">

<g transform="translate(0.000000,788.000000) scale(0.100000,-0.100000)"
fill="#000000" stroke="none">
<path d="M0 3940 l0 -3940 4700 0 4700 0 0 3940 0 3940 -4700 0 -4700 0 0
-3940z m3708 3534 l-3 -56 -70 -29 c-38 -15 -76 -28 -82 -28 -9 -1 -13 15 -13
47 l0 49 78 36 c42 20 81 37 85 37 4 0 7 -25 5 -56z m1920 -1 l-3 -58 -70 -27
c-38 -15 -61 -27 -50 -28 11 0 32 -6 47 -14 23 -12 27 -12 32 0 4 10 24 14 71
14 l65 0 0 -180 0 -180 -70 0 c-38 0 -70 4 -70 9 0 5 -18 2 -41 -5 -104 -36
-199 51 -199 183 0 52 37 123 77 148 29 18 32 25 33 68 l0 48 83 39 c45 21 86
39 90 39 4 1 7 -25 5 -56z m652 22 c54 -28 52 -96 -3 -120 l-32 -14 33 -1 32
0 0 -180 0 -180 -70 0 -70 0 0 180 0 180 33 0 32 1 -32 14 c-71 31 -45 130 35
134 7 1 26 -6 42 -14z m-1460 -265 l0 -230 -70 0 c-38 0 -70 4 -70 9 0 5 -17
3 -38 -5 -81 -27 -167 25 -193 118 -6 24 -13 39 -14 33 -2 -5 -6 -22 -9 -37
-8 -34 -50 -84 -89 -104 -39 -21 -135 -21 -175 0 -71 37 -109 114 -96 196 9
56 41 99 93 127 106 56 246 1 267 -106 8 -38 20 -32 28 14 4 21 21 50 41 70
46 46 105 56 168 30 15 -6 17 0 17 54 l0 61 70 0 70 0 0 -230z m1670 0 l0
-230 -70 0 -70 0 0 230 0 230 70 0 70 0 0 -230z m-3375 92 c23 -62 45 -115 48
-118 2 -2 24 48 48 113 l45 118 82 3 82 3 0 -221 0 -220 -70 0 -69 0 -3 78 -3
77 -26 -75 -25 -75 -60 -3 -60 -3 -26 78 -26 78 -1 -77 -1 -78 -70 0 -70 0 0
220 0 221 81 -3 81 -3 43 -113z m875 78 c0 -38 2 -40 30 -40 l30 0 0 -65 0
-65 -31 0 -30 0 3 -52 c3 -49 5 -53 31 -56 26 -3 27 -5 27 -63 l0 -59 -56 0
c-103 0 -144 47 -144 164 0 59 -2 66 -20 66 -18 0 -20 7 -20 65 0 58 2 65 20
65 17 0 20 7 20 40 l0 40 70 0 70 0 0 -40z m-293 -51 c66 -25 106 -88 107
-169 0 -68 -22 -117 -69 -148 -88 -61 -196 -44 -258 40 -40 53 -38 161 4 219
42 59 142 86 216 58z m1416 -5 c102 -52 138 -165 82 -259 -29 -50 -58 -71
-117 -84 -120 -27 -228 55 -228 174 0 78 40 141 108 171 39 18 118 17 155 -2z
m847 1 c27 -14 30 -14 30 0 0 13 12 15 68 13 l67 -3 3 -165 c3 -197 -7 -257
-51 -304 -94 -99 -317 -41 -317 84 0 18 6 20 58 21 l57 1 -32 14 c-34 14 -76
64 -88 102 -13 44 -6 123 14 166 36 73 124 106 191 71z m1460 -884 c0 -12 -20
-25 -27 -18 -7 7 6 27 18 27 5 0 9 -4 9 -9z m920 -11 c0 -6 -6 -13 -14 -16 -8
-3 -11 -15 -8 -29 6 -34 -6 -95 -20 -95 -7 0 -8 19 -4 55 3 33 2 57 -5 61 -6
3 -3 11 8 20 21 16 43 18 43 4z m-1326 -15 c4 -12 -3 -15 -29 -15 -39 0 -50
-26 -13 -32 30 -4 36 -29 6 -26 -17 2 -23 -2 -23 -17 0 -15 8 -21 33 -23 42
-4 32 -22 -13 -22 -28 0 -35 5 -44 31 -12 35 -14 79 -5 103 8 21 80 22 88 1z
m111 -27 c15 -21 17 -22 26 -5 12 20 40 22 57 5 7 -7 12 -34 12 -62 0 -58 -8
-56 -18 4 -4 24 -12 45 -18 47 -12 4 -34 -39 -34 -67 0 -11 -7 -20 -15 -20
-11 0 -15 11 -15 39 0 69 -38 65 -49 -5 -3 -21 -12 -39 -19 -42 -10 -3 -12 10
-10 54 2 47 6 58 21 60 11 1 21 5 25 8 10 11 21 6 37 -16z m1142 -25 c-12 -72
-55 -103 -91 -67 -18 17 -23 104 -6 104 6 0 10 -13 10 -29 0 -42 9 -61 30 -61
19 0 23 8 35 68 9 43 29 30 22 -15z m-857 5 c0 -44 -10 -78 -22 -78 -6 0 -8
20 -4 53 3 28 6 53 6 55 0 1 5 2 10 2 6 0 10 -15 10 -32z m126 18 c9 -24 -15
-56 -42 -56 -33 0 -29 -33 4 -38 26 -4 20 -22 -8 -22 -22 0 -50 36 -50 63 0
43 82 88 96 53z m123 -5 c21 -13 6 -39 -31 -55 l-33 -14 33 -7 c71 -16 37 -33
-37 -19 -41 9 -37 31 9 55 28 15 30 19 13 19 -12 0 -29 3 -38 6 -13 5 -14 8
-3 15 17 11 69 11 87 0z m125 -13 c40 -65 23 -106 -36 -90 -28 7 -33 13 -33
38 0 25 4 29 28 29 26 -1 27 0 11 12 -10 7 -23 13 -30 13 -7 0 -16 5 -19 10
-4 6 8 10 29 10 26 0 39 -6 50 -22z m200 6 c19 -18 29 -55 24 -81 -3 -13 -12
-18 -37 -16 -66 3 -81 59 -20 73 23 6 23 7 -8 18 -18 6 -33 13 -33 16 0 13 60
5 74 -10z m-640 -16 c9 -12 16 -26 16 -30 0 -15 -33 -38 -56 -38 -21 0 -24 -5
-24 -35 0 -19 -4 -35 -10 -35 -5 0 -10 21 -10 48 0 26 -4 62 -9 80 l-10 32 44
0 c34 0 47 -5 59 -22z m790 -39 c9 -91 8 -111 -6 -106 -12 4 -14 9 -17 49 -1
10 -13 19 -31 23 -67 15 -55 95 14 95 l33 0 7 -61z m-1466 14 c-2 -13 -14 -18
-43 -20 -315 -19 -676 -84 -850 -153 l-30 -12 40 -19 c22 -10 52 -23 68 -28
17 -6 27 -17 27 -30 0 -27 -18 -36 -38 -18 -9 8 -52 30 -94 47 -91 38 -108 54
-86 76 24 24 242 153 250 147 13 -7 9 -43 -4 -43 -7 0 -38 -16 -68 -36 -30
-20 -48 -33 -39 -31 49 16 317 77 402 92 122 22 311 42 400 44 60 1 68 -1 65
-16z m-2408 -548 l0 -125 -25 0 -25 0 0 125 0 125 25 0 25 0 0 -125z m320 85
c0 -37 2 -40 19 -30 84 45 163 -50 116 -139 -21 -41 -72 -54 -116 -31 -13 7
-19 7 -19 0 0 -5 -11 -10 -25 -10 l-25 0 0 125 0 125 25 0 c23 0 25 -4 25 -40z
m-680 13 c27 -18 49 -43 50 -55 0 -5 -13 -8 -30 -8 -16 0 -30 4 -30 9 0 5 -14
14 -31 21 -27 11 -33 11 -57 -7 -37 -28 -43 -92 -11 -122 29 -26 59 -27 92 -1
42 34 77 24 51 -15 -19 -29 -56 -45 -105 -45 -33 0 -48 7 -75 34 -30 30 -34
41 -34 84 0 53 24 96 64 112 35 14 90 11 116 -7z m244 -59 c20 -21 26 -37 26
-69 0 -32 -6 -48 -26 -69 -21 -20 -37 -26 -69 -26 -58 0 -95 36 -95 92 0 86
104 131 164 72z m277 16 c13 -7 19 -7 19 0 0 5 11 10 25 10 25 0 25 0 25 -95
0 -95 0 -95 -25 -95 -14 0 -25 5 -25 10 0 7 -6 7 -19 0 -91 -48 -173 68 -105
149 27 33 67 41 105 21z m486 -5 c34 -24 47 -76 29 -118 -17 -43 -41 -57 -94
-57 -33 0 -45 6 -66 31 -36 43 -35 91 3 130 34 33 91 40 128 14z m123 5 c0 -7
6 -7 19 0 31 16 41 12 41 -15 0 -17 -5 -25 -18 -25 -31 0 -42 -22 -42 -82 0
-55 -1 -58 -25 -58 -25 0 -25 0 -25 95 0 95 0 95 25 95 14 0 25 -5 25 -10z
m208 -2 c9 -9 12 -9 12 0 0 7 11 12 25 12 25 0 25 0 25 -95 0 -95 0 -95 -25
-95 -14 0 -25 5 -25 12 0 9 -3 9 -12 0 -7 -7 -29 -12 -49 -12 -50 0 -79 35
-79 97 0 33 6 50 25 68 26 27 82 34 103 13z m247 -53 c25 -67 21 -68 59 28 12
29 20 37 40 37 20 0 24 -4 19 -17 -4 -9 -30 -71 -58 -137 -46 -109 -54 -121
-78 -124 l-27 -3 20 47 21 47 -36 89 c-19 48 -35 91 -35 94 0 3 12 4 26 2 22
-2 30 -13 49 -63z m-2248 -21 c65 -20 123 -41 130 -46 15 -12 27 -90 19 -123
-4 -15 -28 -39 -64 -63 -74 -51 -176 -161 -227 -245 -22 -36 -45 -66 -52 -67
-6 0 -15 21 -19 47 -6 42 -3 55 26 111 18 35 53 89 77 120 38 49 42 57 26 60
-22 3 -288 -59 -383 -89 -190 -61 -447 -218 -584 -357 -38 -39 -74 -68 -80
-66 -19 6 -125 -148 -185 -271 -33 -66 -71 -158 -86 -205 -27 -89 -60 -327
-50 -367 3 -15 1 -23 -7 -24 -24 -2 -53 3 -61 10 -26 26 -10 242 29 380 132
469 479 821 967 980 70 23 200 57 289 77 90 19 164 37 166 38 1 2 -26 11 -60
20 -125 34 -158 53 -158 92 0 15 7 24 23 27 47 11 150 -5 264 -39z m2925 -58
c296 -74 562 -236 737 -449 192 -236 311 -520 372 -889 7 -43 16 -78 21 -78 4
0 12 19 18 43 30 119 58 167 97 167 21 0 23 -5 24 -47 2 -90 -3 -117 -44 -242
l-42 -126 -48 -12 c-65 -16 -95 -4 -132 55 -43 69 -152 172 -239 227 -42 27
-76 52 -76 56 0 10 67 24 95 20 29 -4 121 -57 189 -109 l59 -46 -6 47 c-12 90
-78 340 -112 429 -75 194 -181 362 -320 506 -33 34 -60 67 -60 73 0 27 -189
152 -323 213 -98 45 -254 96 -295 96 -12 0 -70 3 -129 6 l-108 7 0 26 c0 49
14 54 145 47 66 -3 145 -12 177 -20z m-992 -391 l0 -125 -25 0 c-14 0 -25 5
-25 12 0 9 -3 9 -12 0 -22 -22 -82 -14 -109 14 -36 38 -34 107 4 140 30 26 66
31 98 14 17 -10 19 -7 19 30 0 36 2 40 25 40 l25 0 0 -125z m-1065 3 c22 -61
42 -115 43 -120 2 -4 -8 -8 -23 -8 -18 0 -29 6 -32 20 -4 17 -14 20 -55 20
-41 0 -51 -3 -55 -20 -4 -14 -14 -20 -33 -20 l-28 0 39 108 c22 59 42 113 44
120 2 6 17 12 33 12 26 0 30 -5 67 -112z m125 52 c0 -7 6 -7 19 0 84 45 163
-50 116 -139 -21 -41 -72 -54 -116 -31 -18 10 -19 7 -19 -45 0 -52 -1 -55 -25
-55 l-25 0 0 140 0 140 25 0 c14 0 25 -5 25 -10z m230 0 c0 -7 6 -7 19 0 31
16 41 12 41 -15 0 -17 -5 -25 -18 -25 -31 0 -42 -22 -42 -82 0 -55 -1 -58 -25
-58 -25 0 -25 0 -25 95 0 95 0 95 25 95 14 0 25 -5 25 -10z m234 -12 c15 -13
29 -38 32 -55 l7 -33 -72 0 c-39 0 -71 -4 -71 -8 0 -26 61 -44 75 -22 7 11 55
14 55 3 0 -4 -10 -17 -22 -30 -31 -34 -96 -32 -132 3 -40 40 -33 116 13 151
27 21 87 16 115 -9z m116 10 c0 -9 3 -9 12 0 19 19 70 14 95 -10 20 -19 23
-31 23 -95 0 -71 -1 -73 -25 -73 -23 0 -24 3 -27 66 -2 51 -7 70 -20 78 -35
21 -53 -4 -56 -78 -3 -63 -4 -66 -27 -66 -25 0 -25 1 -25 95 0 95 0 95 25 95
14 0 25 -5 25 -12z m554 -14 c16 -17 26 -38 26 -55 l0 -29 -70 0 c-68 0 -70
-1 -60 -20 12 -22 49 -27 67 -9 6 6 23 9 39 7 l29 -3 -27 -27 c-36 -37 -95
-39 -135 -4 -23 20 -28 32 -28 71 0 39 5 51 28 71 39 34 96 33 131 -2z m-960
-553 c7 -11 -31 -22 -50 -14 -8 3 -14 9 -14 14 0 12 57 12 64 0z m116 -11 c0
-5 -6 -10 -14 -10 -8 0 -18 5 -21 10 -3 6 3 10 14 10 12 0 21 -4 21 -10z m-55
-10 c-3 -5 -10 -10 -16 -10 -5 0 -9 5 -9 10 0 6 7 10 16 10 8 0 12 -4 9 -10z
m200 0 c-7 -12 -42 -12 -70 0 -15 6 -8 9 28 9 30 1 46 -3 42 -9z m-742 -156
c-7 -18 -53 -18 -53 -1 0 20 8 25 35 20 15 -3 22 -10 18 -19z m34 -6 c-3 -8
-6 -5 -6 6 -1 11 2 17 5 13 3 -3 4 -12 1 -19z m33 1 c0 -5 -4 -9 -10 -9 -5 0
-10 7 -10 16 0 8 5 12 10 9 6 -3 10 -10 10 -16z m100 6 c-15 -18 -70 -17 -70
1 0 10 11 13 40 12 29 -1 37 -4 30 -13z m177 3 c-2 -9 -29 -13 -84 -13 -62 -1
-80 2 -76 12 7 18 167 19 160 1z m241 -15 c4 -15 -16 -17 -37 -4 -8 5 -27 5
-44 0 -21 -6 -35 -4 -49 6 -19 13 -19 14 8 17 47 5 117 -6 122 -19z m-173 7
c3 -5 2 -10 -4 -10 -5 0 -13 5 -16 10 -3 6 -2 10 4 10 5 0 13 -4 16 -10z m370
1 c16 -7 14 -9 -13 -14 -37 -7 -92 1 -92 14 0 11 77 11 105 0z m155 -12 c0
-12 -37 -12 -44 0 -7 11 14 20 32 13 6 -2 12 -8 12 -13z m190 0 c0 -5 -9 -9
-20 -9 -19 0 -26 11 -14 23 8 8 34 -3 34 -14z m-1021 -71 c1 7 15 12 36 12 32
0 35 -2 26 -19 -11 -20 -58 -26 -78 -9 -7 6 -13 7 -13 2 0 -5 -15 -9 -33 -10
-17 -1 -26 1 -19 3 6 3 12 12 12 20 0 11 7 14 25 11 14 -3 25 0 26 6 0 6 4 2
9 -9 5 -11 9 -14 9 -7z m-253 -11 c3 -21 -12 -22 -20 -1 -3 8 -11 12 -17 8 -7
-4 -9 -3 -6 4 10 15 40 8 43 -11z m74 13 c0 -5 5 -10 11 -10 5 0 7 4 4 10 -3
5 8 9 27 8 25 -1 34 -6 34 -19 0 -13 -3 -15 -13 -7 -7 6 -13 6 -13 1 0 -14
-53 -15 -62 -1 -11 18 -10 28 2 28 6 0 10 -4 10 -10z m248 -86 c5 3 13 -1 16
-10 9 -22 -3 -32 -14 -14 -9 13 -10 13 -11 0 0 -10 -3 -8 -9 5 -11 26 -12 44
-1 26 5 -7 13 -11 19 -7z m-135 -11 c-3 -7 0 -13 5 -13 6 0 13 8 16 18 4 13 4
13 3 -3 -2 -15 -10 -20 -33 -21 -16 0 -35 -3 -41 -7 -6 -4 -19 0 -28 10 -14
14 -18 14 -26 2 -7 -11 -9 -11 -9 3 0 13 8 17 35 16 19 -1 37 1 40 3 10 11 42
4 38 -8z m99 -1 c5 -19 -27 -29 -37 -11 -4 5 -11 7 -16 4 -5 -4 -9 1 -9 9 0
24 56 21 62 -2z m-332 -8 c0 -13 -12 -18 -32 -15 -5 0 -8 -4 -8 -10 0 -6 -5
-7 -12 -2 -7 4 -20 8 -28 8 -8 0 -16 7 -18 16 -2 13 7 16 48 16 36 1 50 -3 50
-13z m60 1 c0 -8 -4 -15 -10 -15 -5 0 -10 4 -10 9 0 5 -8 12 -17 14 -11 3 -7
5 10 6 18 1 27 -4 27 -14z m430 -160 c-6 -8 -9 -18 -6 -23 9 -15 -65 -20 -79
-6 -7 7 -16 10 -19 6 -4 -3 -11 0 -16 8 -8 13 -10 13 -10 -1 0 -20 -27 -33
-36 -18 -4 6 -11 6 -20 -2 -8 -6 -25 -9 -39 -7 -13 3 -26 0 -29 -6 -2 -6 -5
-2 -6 9 0 17 -2 17 -10 5 -12 -21 -64 -18 -68 3 -3 14 6 17 45 19 70 2 147 6
153 8 3 0 34 3 69 5 35 2 66 6 69 9 12 12 14 5 2 -9z m-465 -34 c-3 -12 -14
-22 -23 -22 -9 -1 -24 -2 -32 -3 -8 -1 -20 3 -27 7 -7 5 -17 6 -23 2 -5 -3
-10 1 -10 9 0 20 90 23 91 4 0 -7 5 -3 11 10 13 27 22 22 13 -7z m65 -1 c0
-18 -2 -19 -20 -8 -11 7 -20 16 -20 20 0 5 9 8 20 8 13 0 20 -7 20 -20z m396
-60 c5 0 10 -5 12 -13 2 -11 -9 -16 -38 -19 -23 -2 -44 0 -46 4 -3 5 -10 6
-15 3 -5 -4 -9 1 -9 9 0 20 56 22 63 4 3 -7 6 -2 6 12 1 18 4 21 10 12 4 -8
12 -13 17 -12z m-165 -8 c24 2 47 8 51 13 4 6 8 0 8 -13 0 -27 -28 -41 -41
-21 -7 12 -9 12 -9 0 0 -9 -10 -12 -35 -9 -24 3 -35 0 -35 -9 0 -7 -4 -13 -10
-13 -5 0 -7 8 -4 18 5 15 4 15 -8 2 -9 -11 -22 -14 -43 -9 -16 4 -24 7 -17 8
6 0 12 8 12 16 0 10 11 15 35 15 21 0 35 5 35 13 0 9 2 9 8 -1 6 -8 25 -12 53
-10z m-271 -32 c7 -14 7 -20 0 -20 -5 0 -10 8 -11 18 0 13 -2 14 -6 2 -3 -8
-10 -18 -15 -21 -14 -9 -68 2 -68 15 0 6 -5 4 -10 -4 -8 -13 -10 -12 -10 3 0
16 7 18 45 16 24 -2 47 0 51 4 10 10 12 9 24 -13z m60 -3 c0 -19 -1 -19 -18
-4 -10 10 -22 14 -25 10 -4 -3 -7 -2 -7 4 0 6 11 11 25 11 18 0 25 -6 25 -21z
m-305 -5 c0 -18 -20 -15 -23 4 -3 10 1 15 10 12 7 -3 13 -10 13 -16z m-2005
-187 l0 -125 -25 0 c-14 0 -25 5 -25 12 0 9 -3 9 -12 0 -15 -15 -78 -15 -99 1
-45 35 -51 101 -13 146 27 33 67 41 105 21 17 -10 19 -7 19 30 0 36 2 40 25
40 l25 0 0 -125z m-265 3 c22 -61 42 -115 43 -120 2 -4 -8 -8 -23 -8 -18 0
-29 6 -32 20 -4 17 -14 20 -55 20 -41 0 -51 -3 -55 -20 -4 -14 -14 -20 -33
-20 l-28 0 39 108 c22 59 41 113 44 120 2 6 17 12 33 12 26 0 30 -5 67 -112z
m825 87 c0 -18 5 -25 20 -25 13 0 20 -7 20 -20 0 -13 -7 -20 -20 -20 -17 0
-20 -7 -20 -51 0 -42 3 -52 20 -56 31 -8 26 -43 -7 -43 -45 0 -63 26 -63 92 0
32 -4 58 -10 58 -5 0 -10 9 -10 20 0 11 5 20 10 20 6 0 10 11 10 25 0 20 5 25
25 25 20 0 25 -5 25 -25z m2414 -14 c10 -16 -22 -32 -56 -29 -37 3 -41 20 -6
30 34 9 56 9 62 -1z m-2813 -21 c13 -7 19 -7 19 0 0 5 11 10 25 10 25 0 25 0
25 -95 0 -95 0 -95 -25 -95 -14 0 -25 5 -25 10 0 7 -6 7 -19 0 -91 -48 -173
68 -105 149 27 33 67 41 105 21z m159 0 c0 -7 6 -7 19 0 84 45 163 -50 116
-139 -21 -41 -72 -54 -116 -31 -18 10 -19 7 -19 -45 0 -52 -1 -55 -25 -55
l-25 0 0 140 0 140 25 0 c14 0 25 -5 25 -10z m431 0 c13 -7 19 -7 19 0 0 5 11
10 25 10 25 0 25 0 25 -95 0 -95 0 -95 -25 -95 -14 0 -25 5 -25 12 0 9 -3 9
-12 0 -22 -22 -82 -14 -109 14 -36 38 -34 107 4 140 30 26 66 31 98 14z m2035
-8 c-19 -19 -57 -23 -68 -7 -5 6 -12 4 -20 -7 -18 -23 -115 -30 -123 -9 -5 13
-7 14 -15 1 -8 -13 -10 -13 -10 1 0 9 7 19 15 23 10 3 15 -1 15 -12 0 -10 3
-13 8 -6 13 19 42 25 42 9 0 -21 27 -19 34 3 5 14 19 17 73 19 62 2 65 1 49
-15z m58 -3 c-3 -5 -10 -7 -15 -3 -5 3 -7 10 -3 15 3 5 10 7 15 3 5 -3 7 -10
3 -15z m-308 -19 c0 -13 -7 -20 -21 -21 -51 -1 -86 -8 -98 -17 -9 -8 -12 -4
-12 13 0 13 3 21 7 19 4 -2 9 0 12 4 3 5 26 10 52 11 26 0 50 3 52 6 8 7 8 7
8 -15z m-231 -6 c16 3 36 0 44 -7 12 -9 13 -9 7 1 -4 6 -2 12 3 12 6 0 11 -9
11 -20 0 -22 -15 -27 -26 -9 -4 8 -8 8 -13 0 -4 -6 -21 -11 -39 -13 -18 -1
-32 -6 -32 -10 0 -4 -5 -8 -11 -8 -5 0 -7 6 -3 13 6 9 4 9 -7 1 -37 -27 -99
-5 -85 31 9 24 28 18 22 -7 -3 -13 -3 -17 0 -10 3 6 23 15 45 18 21 4 39 12
39 18 0 7 3 6 9 -2 5 -8 19 -11 36 -8z m755 -24 c23 -15 -4 -28 -56 -28 -23 0
-51 -5 -62 -11 -30 -16 -44 -13 -40 7 2 12 20 20 63 28 78 15 78 15 95 4z
m-345 -32 c-6 -20 -6 -21 6 -7 18 22 143 34 158 16 5 -7 6 -19 2 -26 -6 -9
-11 -10 -15 -2 -5 8 -13 8 -29 -1 -12 -6 -46 -12 -75 -13 -55 -2 -70 9 -58 40
9 24 18 17 11 -7z m-92 -18 c3 -11 1 -18 -3 -15 -5 3 -10 0 -12 -6 -5 -14 -81
-19 -90 -5 -6 8 -8 7 -8 -1 0 -7 -4 -13 -10 -13 -5 0 -10 9 -10 21 0 11 5 17
10 14 6 -3 10 -2 10 3 0 5 11 7 25 4 14 -2 25 -11 25 -18 0 -22 17 -16 23 7 3
12 10 18 16 14 6 -3 11 -1 11 4 0 18 7 12 13 -9z m-163 -19 c-6 -12 -14 -21
-18 -22 -4 0 -15 -2 -24 -4 -14 -3 -15 1 -6 20 7 15 16 21 29 18 11 -3 19 0
19 8 0 7 3 10 6 7 3 -4 1 -16 -6 -27z m-1562 -51 c-11 -27 -27 -50 -34 -50
-17 0 -17 13 -3 63 8 30 15 37 34 37 l24 0 -21 -50z m1289 36 c-8 -21 4 -28
17 -10 8 10 36 16 94 20 l82 5 0 -26 c0 -14 -4 -25 -10 -25 -5 0 -7 6 -4 14 3
8 1 17 -5 21 -6 3 -11 -1 -11 -11 0 -14 -2 -15 -17 -3 -10 7 -15 10 -11 5 4
-5 0 -15 -8 -23 -13 -14 -17 -13 -30 3 -9 11 -13 13 -9 7 4 -9 -6 -13 -34 -14
-23 -1 -47 -2 -53 -3 -7 -1 -14 11 -16 27 -2 16 2 27 8 27 7 0 10 -6 7 -14z
m886 2 c11 2 17 -3 17 -17 0 -22 -24 -29 -35 -11 -4 7 -12 7 -25 0 -23 -12
-67 -13 -74 -1 -7 11 74 40 89 32 6 -3 18 -4 28 -3z m-160 -25 c8 -7 -11 -33
-24 -33 -5 0 -9 9 -9 20 0 19 20 27 33 13z m-183 -23 c0 -13 -10 -22 -32 -28
-37 -10 -48 -7 -48 14 0 8 10 14 23 14 12 0 29 5 37 10 20 13 20 13 20 -10z
m120 5 c0 -9 -6 -15 -12 -13 -7 1 -23 -3 -35 -10 -23 -13 -49 -8 -56 12 -3 7
7 13 26 14 17 2 33 5 36 7 11 11 41 4 41 -10z m2190 -2 c27 -18 49 -43 50 -55
0 -5 -13 -8 -30 -8 -16 0 -30 4 -30 9 0 5 -14 14 -31 21 -27 11 -33 11 -57 -7
-20 -15 -28 -30 -30 -61 -5 -72 55 -106 111 -62 42 34 77 24 51 -15 -19 -29
-56 -45 -105 -45 -33 0 -48 7 -75 34 -29 29 -34 41 -34 81 0 57 12 80 53 105
39 24 94 26 127 3z m915 -95 c22 -61 42 -115 43 -120 2 -4 -8 -8 -23 -8 -18 0
-29 6 -32 20 -4 17 -14 20 -55 20 -41 0 -51 -3 -55 -20 -4 -14 -14 -20 -33
-20 l-28 0 39 108 c22 59 42 113 44 120 2 6 17 12 33 12 26 0 30 -5 67 -112z
m213 96 c30 -21 29 -54 -2 -54 -13 0 -27 7 -30 16 -8 21 -50 14 -54 -9 -3 -12
10 -23 45 -37 77 -33 93 -71 48 -115 -43 -44 -145 -25 -145 26 0 23 45 27 54
4 7 -19 52 -20 60 0 7 19 -17 42 -53 50 -61 13 -85 81 -41 117 27 22 88 23
118 2z m237 -96 c22 -61 42 -115 43 -120 2 -4 -8 -8 -23 -8 -18 0 -29 6 -32
20 -4 17 -14 20 -55 20 -41 0 -51 -3 -55 -20 -4 -14 -14 -20 -33 -20 l-28 0
39 108 c22 59 42 113 44 120 2 6 17 12 33 12 26 0 30 -5 67 -112z m214 97 c33
-16 45 -52 31 -89 -11 -31 -39 -46 -84 -46 -36 0 -36 0 -36 -45 0 -41 -2 -45
-25 -45 l-25 0 0 120 0 120 55 0 c31 0 69 -7 84 -15z m-4043 -15 c27 6 37 5
41 -6 3 -8 2 -18 -2 -22 -4 -4 -10 -1 -12 6 -4 10 -8 10 -17 -2 -17 -24 -147
-33 -165 -13 -10 13 -9 17 8 27 15 8 21 8 21 0 0 -7 6 -8 16 -2 9 5 25 7 35 5
12 -3 19 0 19 8 0 9 3 10 11 2 7 -7 23 -8 45 -3z m-265 -42 c0 -13 3 -17 6
-10 2 6 9 10 14 7 5 -4 6 1 3 9 -7 18 -3 19 20 10 9 -3 13 -10 10 -15 -3 -5 0
-9 6 -9 6 0 8 -5 5 -11 -4 -6 -22 -8 -41 -6 -18 3 -36 2 -39 -1 -3 -3 -16 -7
-28 -9 -12 -1 -33 -5 -47 -7 -22 -4 -25 -1 -27 25 -2 29 -2 29 40 23 23 -4 45
-11 48 -17 9 -12 22 10 14 23 -3 6 -1 10 4 10 6 0 11 -10 12 -22z m2869 10 c0
-9 3 -9 12 0 20 20 38 14 38 -12 0 -17 -7 -26 -25 -30 -23 -6 -25 -10 -25 -71
0 -63 -1 -65 -25 -65 -25 0 -25 0 -25 95 0 95 0 95 25 95 14 0 25 -5 25 -12z
m234 -14 c16 -17 26 -38 26 -55 l0 -29 -70 0 c-68 0 -70 -1 -60 -20 12 -22 49
-27 67 -9 6 6 23 9 39 7 l29 -3 -27 -27 c-36 -37 -95 -39 -135 -4 -23 20 -28
32 -28 71 0 39 5 51 28 71 39 34 96 33 131 -2z m177 16 c13 -7 19 -7 19 0 0 5
11 10 25 10 25 0 25 0 25 -95 0 -95 0 -95 -25 -95 -14 0 -25 5 -25 12 0 9 -3
9 -12 0 -22 -22 -82 -14 -109 14 -36 38 -34 107 4 140 30 26 66 31 98 14z
m-2722 -29 c17 -11 5 -31 -19 -31 -21 0 -34 15 -25 30 8 12 25 13 44 1z m-803
-28 c-10 -10 -19 5 -10 18 6 11 8 11 12 0 2 -7 1 -15 -2 -18z m744 6 c0 -15
-5 -20 -22 -17 -27 4 -35 25 -11 31 31 8 33 7 33 -14z m-96 5 c22 -9 20 -31
-4 -37 -16 -4 -20 0 -20 19 0 26 1 27 24 18z m-54 -28 c0 -17 -61 -30 -71 -15
-4 8 -9 5 -13 -7 -5 -16 -16 -19 -66 -19 -47 0 -60 3 -60 15 0 13 1 13 10 0 8
-13 10 -12 10 3 0 9 1 17 3 18 1 0 29 3 62 6 33 3 62 7 64 9 11 11 61 3 61
-10z m-303 -21 c0 -8 -4 -15 -9 -15 -4 0 -8 -7 -8 -15 0 -9 -10 -16 -25 -16
-14 -1 -31 -2 -37 -3 -7 -1 -14 7 -16 17 -3 13 3 17 27 17 17 0 34 -1 37 -2 3
-2 10 5 15 15 12 21 16 21 16 2z m63 -26 c0 -10 -5 -19 -11 -19 -6 0 -8 9 -4
23 5 19 4 20 -5 5 -6 -10 -15 -18 -20 -18 -6 0 -10 8 -10 18 0 13 2 14 9 4 7
-11 9 -10 15 3 8 21 26 10 26 -16z m518 -6 c-4 -24 -53 -34 -85 -18 l-27 14
25 10 c13 5 39 10 57 10 26 1 33 -3 30 -16z m-861 -15 c-3 -8 -6 -5 -6 6 -1
11 2 17 5 13 3 -3 4 -12 1 -19z m711 -6 c2 -15 -2 -21 -15 -21 -10 0 -45 -5
-77 -11 -47 -9 -61 -8 -68 2 -6 10 -8 10 -8 -2 0 -13 -1 -13 -10 0 -8 12 -10
12 -10 -5 -1 -19 -1 -19 -11 -2 -12 20 -3 59 9 40 6 -9 25 -9 79 0 39 7 75 16
79 20 13 12 29 2 32 -21z m-2608 -17 c17 -20 5 -45 -20 -45 -11 0 -23 7 -26
15 -6 15 11 45 26 45 4 0 13 -7 20 -15z m2389 -25 c6 0 11 -4 11 -9 0 -13 -82
-11 -98 1 -9 8 -11 7 -6 -7 5 -13 4 -16 -4 -11 -7 4 -12 15 -12 25 0 13 7 18
24 16 13 -2 29 1 37 6 9 6 18 3 25 -6 6 -8 16 -15 23 -15z m-196 -15 c2 -14 2
-23 -1 -21 -2 3 -13 1 -23 -5 -16 -8 -19 -6 -19 11 0 11 7 20 15 20 8 0 15 5
15 10 0 19 8 10 13 -15z m28 3 l10 -23 -5 23 c-5 28 4 28 28 0 15 -18 16 -20
2 -15 -9 4 -16 2 -16 -3 0 -16 -27 -11 -34 6 -14 37 -1 47 15 12z m-171 -42
c0 -39 -6 -30 -13 19 -4 27 -3 35 3 25 5 -8 10 -28 10 -44z m-165 15 c25 10
51 11 42 2 -4 -3 -2 -12 5 -20 15 -18 -1 -34 -36 -36 -18 -2 -26 -8 -26 -19 0
-10 -4 -18 -9 -18 -10 0 -21 50 -21 94 1 29 1 30 13 10 9 -16 17 -19 32 -13z
m738 -24 c-3 -5 -9 -3 -14 4 -7 12 -9 12 -9 0 0 -8 -3 -11 -6 -8 -4 4 -1 14 6
22 10 12 15 13 21 3 4 -6 5 -16 2 -21z m-3083 8 c11 -13 15 -13 33 0 35 24 82
19 106 -11 17 -21 21 -41 21 -95 0 -67 -1 -69 -25 -69 -23 0 -24 3 -27 66 -2
51 -7 70 -20 78 -35 21 -53 -4 -56 -78 -3 -62 -4 -66 -27 -66 -23 0 -24 4 -27
66 -3 74 -21 99 -55 78 -14 -8 -19 -27 -21 -78 -3 -63 -4 -66 -27 -66 -25 0
-25 1 -25 94 l0 94 69 0 c49 1 73 -3 81 -13z m354 -11 c16 -17 26 -38 26 -55
l0 -29 -70 0 c-68 0 -70 -1 -60 -20 12 -22 49 -27 67 -9 6 6 23 9 39 7 l29 -3
-27 -27 c-38 -39 -104 -39 -139 -2 -36 38 -34 107 4 140 39 34 96 33 131 -2z
m106 -104 c0 -118 -2 -130 -19 -140 -33 -17 -61 -12 -61 10 0 11 7 20 15 20
17 0 18 8 16 133 -2 97 1 107 30 107 18 0 19 -8 19 -130z m201 101 c38 -39 39
-87 3 -130 -22 -26 -33 -31 -70 -31 -63 0 -94 32 -94 95 0 37 5 51 26 70 39
36 96 34 135 -4z m112 17 c4 -10 7 -10 18 0 21 20 39 14 39 -13 0 -18 -5 -25
-20 -25 -25 0 -40 -35 -40 -96 0 -39 -3 -44 -23 -44 -21 0 -22 4 -24 86 -1 48
0 91 3 95 8 13 42 11 47 -3z m208 2 c13 -7 19 -7 19 0 0 5 11 10 25 10 25 0
25 0 25 -95 0 -95 0 -95 -25 -95 -14 0 -25 5 -25 10 0 7 -6 7 -19 0 -91 -48
-173 68 -105 149 27 33 67 41 105 21z m1029 0 c0 -5 -7 -10 -15 -10 -8 0 -15
5 -15 10 0 6 7 10 15 10 8 0 15 -4 15 -10z m1023 -4 c8 -20 -20 -28 -46 -14
-21 11 -21 11 -2 19 30 12 42 10 48 -5z m-234 -21 c1 13 4 16 9 8 5 -9 19 -9
50 -2 50 11 62 6 61 -24 -1 -17 -2 -18 -6 -4 -5 17 -23 24 -23 8 0 -5 -7 -12
-16 -15 -12 -4 -15 -2 -10 9 4 13 2 14 -14 5 -10 -5 -22 -15 -26 -21 -4 -8 -9
-7 -15 2 -7 12 -9 11 -10 -1 -1 -19 -18 18 -18 40 0 9 4 8 9 -5 l9 -20 0 20z
m-26 -25 c3 -11 2 -20 -3 -20 -4 0 -10 11 -12 25 -6 29 7 25 15 -5z m-43 -16
c0 -8 -4 -14 -10 -14 -5 0 -10 5 -10 10 0 6 -4 10 -10 10 -5 0 -7 -6 -4 -13 2
-7 -4 -13 -16 -14 -11 -1 -20 4 -20 10 0 7 -4 6 -10 -3 -9 -13 -11 -13 -20 0
-14 22 21 33 38 12 11 -14 12 -13 12 7 0 12 4 19 10 16 6 -3 10 -1 10 6 0 8 4
8 15 -1 8 -7 15 -19 15 -26z m-720 -54 c0 -5 -8 -10 -17 -10 -15 0 -16 2 -3
10 19 12 20 12 20 0z m659 -64 c-2 -2 -21 -7 -41 -11 -31 -6 -38 -4 -38 9 0
10 11 19 30 23 17 3 30 11 31 17 0 6 5 1 11 -12 6 -12 9 -24 7 -26z m-379 -15
c0 -11 -50 -24 -58 -16 -8 8 19 25 41 25 9 0 17 -4 17 -9z m130 -16 c0 -14 -4
-25 -10 -25 -5 0 -10 11 -10 25 0 14 5 25 10 25 6 0 10 -11 10 -25z m-220 7
c0 -10 -68 -32 -99 -32 -25 0 -29 19 -3 21 42 3 75 8 80 13 8 9 22 7 22 -2z
m428 -87 c-2 -2 -20 -6 -40 -10 -31 -6 -38 -4 -38 9 0 9 7 17 15 18 8 0 21 1
28 2 6 1 16 8 22 16 8 12 10 11 13 -8 2 -13 2 -25 0 -27z m3541 10 c24 -51 40
-145 45 -265 12 -300 -79 -591 -262 -829 -164 -214 -298 -319 -617 -483 -93
-48 -165 -88 -160 -89 6 -1 38 -3 72 -4 92 -4 131 -13 143 -36 15 -27 7 -35
-52 -55 -43 -14 -74 -16 -188 -11 -75 4 -143 9 -152 12 -19 8 -48 69 -48 103
0 18 19 51 56 97 66 83 98 142 135 250 15 43 31 81 36 82 5 2 18 -14 27 -36
21 -45 15 -91 -29 -207 -15 -38 -29 -78 -32 -88 -10 -30 319 144 431 229 116
88 162 130 239 225 83 101 108 135 143 197 16 29 34 53 40 53 23 0 93 195 119
333 20 100 32 327 18 327 -5 0 -10 22 -12 48 -1 26 -8 74 -16 107 -10 45 -11
62 -2 67 23 15 52 3 66 -27z m-3729 -32 c0 -19 -13 -9 -16 12 -1 8 2 13 7 9 5
-3 9 -12 9 -21z m-130 3 c0 -13 -28 -26 -57 -26 -21 0 -15 20 10 30 32 13 47
12 47 -4z m1000 -6 c0 -5 -5 -10 -11 -10 -5 0 -7 5 -4 10 3 6 8 10 11 10 2 0
4 -4 4 -10z m-1100 -13 c0 -19 -108 -43 -123 -28 -15 15 -8 19 47 25 27 3 52
8 54 11 10 10 22 5 22 -8z m-1638 -33 c4 -3 25 -31 44 -62 48 -75 164 -188
242 -236 61 -38 80 -66 43 -66 -10 0 -31 -3 -47 -6 -33 -6 -132 48 -217 119
-26 22 -51 37 -54 33 -12 -11 60 -342 99 -454 43 -127 101 -247 161 -337 53
-80 142 -191 189 -237 21 -21 33 -38 26 -38 -42 0 197 -169 321 -227 116 -55
254 -101 301 -101 19 -1 59 -6 89 -11 29 -6 76 -11 103 -11 50 0 50 0 44 -27
-12 -48 -31 -56 -126 -48 -282 22 -560 143 -787 343 -190 168 -353 435 -428
702 -28 102 -72 312 -81 393 -4 31 -10 57 -15 57 -5 0 -13 -19 -19 -42 -31
-120 -58 -168 -95 -168 -31 0 -40 30 -32 104 5 50 81 292 98 310 17 19 115 26
141 10z m1464 -9 c-10 -8 -23 -12 -28 -9 -14 9 2 24 25 24 21 -1 21 -1 3 -15z
m1059 -4 c6 -1 4 -5 -4 -10 -14 -9 -51 -3 -51 9 0 6 16 7 55 1z m-641 -27 c9
-24 7 -34 -7 -34 -19 0 -40 37 -24 43 20 9 25 8 31 -9z m503 1 c0 -10 -6 -14
-15 -10 -9 3 -19 1 -22 -5 -5 -8 -9 -6 -13 5 -4 9 -3 14 1 12 5 -3 40 6 48 12
0 1 1 -6 1 -14z m-134 -35 c-3 -13 -13 -20 -27 -19 -18 1 -18 2 -3 6 11 3 16
11 13 19 -3 8 1 14 8 14 9 0 12 -7 9 -20z m-129 -41 c-2 -4 -15 -9 -29 -11
-20 -4 -25 -1 -25 15 0 16 3 18 12 9 18 -18 28 -15 29 11 0 21 1 21 8 2 5 -11
7 -23 5 -26z m73 15 c-9 -9 -28 6 -21 18 4 6 10 6 17 -1 6 -6 8 -13 4 -17z
m-157 -19 c0 -8 -4 -15 -8 -15 -5 0 -9 7 -9 15 0 8 4 15 9 15 4 0 8 -7 8 -15z
m-540 -5 c0 -5 -9 -10 -20 -10 -11 0 -20 5 -20 10 0 6 9 10 20 10 11 0 20 -4
20 -10z m387 -16 c-3 -3 -12 -4 -19 -1 -8 3 -5 6 6 6 11 1 17 -2 13 -5z m-122
-54 c0 -10 -14 -16 -50 -18 -27 -2 -62 -10 -77 -17 -25 -12 -28 -12 -28 5 0
12 10 20 35 24 20 4 40 4 45 1 6 -4 17 1 26 10 19 19 49 16 49 -5z m-187 -45
c-11 -11 -78 -18 -78 -8 0 14 63 32 74 22 5 -5 7 -11 4 -14z m847 16 c3 -5 0
-13 -6 -17 -8 -4 -9 -3 -5 4 4 7 3 12 -3 12 -5 0 -14 -8 -20 -17 -5 -10 -12
-15 -16 -12 -7 7 22 39 35 39 5 0 11 -4 15 -9z m-535 -21 c0 -5 -2 -10 -4 -10
-3 0 -8 5 -11 10 -3 6 -1 10 4 10 6 0 11 -4 11 -10z m17 -32 c-3 -8 -6 -5 -6
6 -1 11 2 17 5 13 3 -3 4 -12 1 -19z m367 7 c-4 -8 -8 -15 -10 -15 -2 0 -4 7
-4 15 0 8 4 15 10 15 5 0 7 -7 4 -15z m-127 -34 c0 -11 -5 -17 -9 -15 -11 7
-10 34 1 34 6 0 9 -9 8 -19z m33 4 c0 -8 -4 -15 -10 -15 -5 0 -7 7 -4 15 4 8
8 15 10 15 2 0 4 -7 4 -15z m313 0 c-3 -9 -8 -14 -10 -11 -3 3 -2 9 2 15 9 16
15 13 8 -4z m-423 -20 c0 -8 -4 -15 -8 -15 -5 0 -9 7 -9 15 0 8 4 15 9 15 4 0
8 -7 8 -15z m-136 -55 c-5 -5 -10 3 -11 18 -1 22 0 24 9 8 6 -10 6 -22 2 -26z
m411 31 c3 -5 0 -13 -6 -17 -8 -4 -9 -3 -5 4 4 7 2 12 -3 12 -6 0 -11 -7 -11
-15 0 -8 -4 -15 -10 -15 -12 0 -9 22 5 32 14 10 23 10 30 -1z m-61 -27 c3 -8
2 -12 -4 -9 -6 3 -10 10 -10 16 0 14 7 11 14 -7z m-102 -26 c-7 -7 -12 -8 -12
-2 0 6 3 14 7 17 3 4 9 5 12 2 2 -3 -1 -11 -7 -17z m-105 -30 c-3 -8 -6 -5 -6
6 -1 11 2 17 5 13 3 -3 4 -12 1 -19z m300 -13 c0 -8 -3 -13 -5 -10 -3 3 -11 0
-19 -7 -11 -9 -13 -8 -11 3 2 8 10 17 18 21 8 4 15 7 16 7 0 1 1 -6 1 -14z
m-431 -32 c-11 -11 -19 6 -11 24 8 17 8 17 12 0 3 -10 2 -21 -1 -24z m314 1
c0 -8 -5 -12 -10 -9 -6 4 -8 11 -5 16 9 14 15 11 15 -7z m-58 -11 c-6 -2 -10
-9 -6 -14 3 -5 0 -9 -5 -9 -12 0 -14 13 -4 23 3 4 11 7 17 6 6 0 5 -3 -2 -6z
m508 -43 c-20 -13 -43 -13 -35 0 3 6 16 10 28 10 18 0 19 -2 7 -10z m-746 -26
c9 -23 7 -34 -4 -34 -5 0 -9 6 -7 13 1 6 -4 11 -10 10 -14 -3 -17 9 -6 20 11
11 20 8 27 -9z m361 6 c3 -5 1 -10 -4 -10 -6 0 -11 5 -11 10 0 6 2 10 4 10 3
0 8 -4 11 -10z m-51 -26 c3 -8 2 -12 -4 -9 -6 3 -10 10 -10 16 0 14 7 11 14
-7z m-154 -44 c0 -5 -2 -10 -4 -10 -3 0 -8 5 -11 10 -3 6 -1 10 4 10 6 0 11
-4 11 -10z m-133 -66 c-3 -4 -14 1 -23 11 -15 14 -15 18 -3 26 10 6 17 3 23
-11 5 -11 6 -23 3 -26z m336 26 c-5 -19 -23 -29 -23 -12 0 7 20 32 26 32 1 0
0 -9 -3 -20z m-106 -42 c-3 -8 -6 -5 -6 6 -1 11 2 17 5 13 3 -3 4 -12 1 -19z
m-81 -25 c-10 -10 -19 5 -10 18 6 11 8 11 12 0 2 -7 1 -15 -2 -18z m239 -3 c3
-5 1 -10 -4 -10 -6 0 -11 5 -11 10 0 6 2 10 4 10 3 0 8 -4 11 -10z m-375 -14
c0 -2 -7 -7 -16 -10 -8 -3 -12 -2 -9 4 6 10 25 14 25 6z m310 -20 c0 -3 -4 -8
-10 -11 -5 -3 -10 -1 -10 4 0 6 5 11 10 11 6 0 10 -2 10 -4z m-50 -21 c0 -8
-2 -15 -4 -15 -2 0 -6 7 -10 15 -3 8 -1 15 4 15 6 0 10 -7 10 -15z m-30 1 c0
-3 -4 -8 -10 -11 -5 -3 -10 -1 -10 4 0 6 5 11 10 11 6 0 10 -2 10 -4z m-83
-38 c-3 -8 -6 -5 -6 6 -1 11 2 17 5 13 3 -3 4 -12 1 -19z m-127 -49 c0 -10 -4
-19 -10 -19 -5 0 -10 7 -10 15 0 8 -6 15 -12 15 -9 0 -8 3 2 9 18 12 30 5 30
-20z m478 -6 c-3 -19 -54 -47 -68 -38 -5 3 -12 0 -15 -6 -4 -5 -13 -8 -20 -5
-8 3 -16 0 -19 -7 -3 -9 -5 -8 -5 1 -1 7 16 20 37 28 20 8 48 20 62 28 14 8
26 15 28 15 2 1 2 -7 0 -16z m-178 -74 c0 -6 -4 -7 -10 -4 -5 3 -10 11 -10 16
0 6 5 7 10 4 6 -3 10 -11 10 -16z m17 -1 c-3 -8 -6 -5 -6 6 -1 11 2 17 5 13 3
-3 4 -12 1 -19z m-50 -12 c0 -20 -74 -43 -89 -28 -9 9 -6 12 13 12 13 0 33 7
43 15 25 19 33 19 33 1z m613 -612 c11 -12 10 -18 -3 -31 -8 -9 -23 -13 -31
-10 -19 8 -21 43 -3 50 20 9 24 8 37 -9z m-90 -129 l0 -125 -25 0 -25 0 0 125
0 125 25 0 25 0 0 -125z m-1061 100 c48 -24 55 -72 16 -111 l-25 -25 26 -45
26 -44 -29 0 c-23 0 -33 8 -53 45 -14 25 -30 45 -37 45 -9 0 -13 -15 -13 -45
0 -41 -2 -45 -25 -45 l-25 0 0 120 0 120 55 0 c31 0 69 -7 84 -15z m351 -10
c0 -18 5 -25 20 -25 13 0 20 -7 20 -20 0 -13 -7 -20 -20 -20 -18 0 -20 -7 -20
-55 0 -48 2 -55 20 -55 13 0 20 -7 20 -20 0 -15 -7 -20 -27 -20 -45 0 -63 26
-63 92 0 32 -4 58 -10 58 -5 0 -10 9 -10 20 0 11 5 20 10 20 6 0 10 11 10 25
0 20 5 25 25 25 20 0 25 -5 25 -25z m1698 -2 c2 -15 10 -23 23 -23 12 0 19 -7
19 -20 0 -13 -7 -20 -20 -20 -18 0 -20 -7 -20 -55 0 -48 2 -55 20 -55 13 0 20
-7 20 -20 0 -15 -7 -20 -29 -20 -46 0 -61 23 -61 91 0 33 -4 59 -10 59 -5 0
-10 9 -10 20 0 11 5 20 10 20 6 0 10 12 10 26 0 21 4 25 23 22 14 -2 23 -11
25 -25z m-1817 -52 c17 -17 29 -40 29 -55 0 -25 -1 -26 -70 -26 -38 0 -70 -4
-70 -8 0 -26 61 -44 75 -22 7 11 55 14 55 3 0 -4 -10 -17 -22 -30 -34 -36 -98
-32 -132 8 -36 43 -35 91 3 130 22 21 39 29 66 29 27 0 44 -8 66 -29z m239 19
c0 -7 6 -7 19 0 31 16 41 12 41 -15 0 -17 -5 -25 -18 -25 -31 0 -42 -22 -42
-82 0 -55 -1 -58 -25 -58 -25 0 -25 0 -25 95 0 95 0 95 25 95 14 0 25 -5 25
-10z m244 -16 c20 -21 26 -37 26 -69 0 -59 -36 -95 -95 -95 -86 0 -127 100
-66 161 40 39 97 41 135 3z m184 14 c9 -9 12 -9 12 0 0 7 11 12 25 12 25 0 25
0 25 -95 0 -95 0 -95 -25 -95 -14 0 -25 5 -25 12 0 9 -3 9 -12 0 -7 -7 -29
-12 -49 -12 -50 0 -79 35 -79 97 0 33 6 50 25 68 26 27 82 34 103 13z m252
-83 c0 -95 0 -95 -25 -95 -25 0 -25 0 -25 95 0 95 0 95 25 95 25 0 25 0 25
-95z m196 80 c18 -12 24 -12 40 0 32 24 80 19 103 -11 17 -21 21 -41 21 -95 0
-67 -1 -69 -25 -69 -23 0 -24 3 -27 66 -2 51 -7 70 -20 78 -35 21 -53 -4 -56
-78 -3 -62 -4 -66 -27 -66 -23 0 -24 4 -27 66 -3 74 -21 99 -55 78 -14 -8 -19
-27 -21 -78 -3 -63 -4 -66 -27 -66 -25 0 -25 1 -25 94 l0 94 63 0 c36 0 71 -5
83 -13z m358 -11 c16 -17 26 -38 26 -55 l0 -29 -70 0 c-68 0 -70 -1 -60 -20
12 -22 49 -27 67 -9 6 6 23 9 39 7 l29 -3 -27 -27 c-53 -54 -150 -27 -164 46
-6 37 14 88 43 105 34 20 89 13 117 -15z m106 17 c0 -5 13 -4 30 2 38 14 80 0
97 -33 7 -14 13 -53 13 -87 0 -61 -1 -63 -25 -63 -24 0 -25 3 -25 56 0 68 -13
94 -46 94 -30 0 -44 -31 -44 -101 0 -44 -2 -49 -22 -49 -22 0 -23 3 -21 92 1
51 2 94 2 96 2 7 41 1 41 -7z m428 -3 c10 -10 15 -10 21 1 5 7 17 11 27 9 17
-3 19 -14 22 -96 l3 -92 -26 0 c-14 0 -25 5 -25 10 0 7 -6 7 -19 0 -36 -19
-80 -12 -106 16 -55 59 -18 164 58 164 18 0 39 -6 45 -12z m-3678 -902 c0 -8
-4 -17 -9 -21 -12 -7 -24 12 -16 25 9 15 25 12 25 -4z m2320 4 c0 -5 -13 -16
-30 -25 -35 -18 -41 -4 -8 19 26 18 38 20 38 6z m240 -4 c0 -8 -4 -17 -9 -21
-12 -7 -24 12 -16 25 9 15 25 12 25 -4z m3030 0 c0 -8 -4 -17 -9 -21 -12 -7
-24 12 -16 25 9 15 25 12 25 -4z m-5408 -96 c2 -75 0 -100 -9 -100 -7 0 -13 5
-13 12 0 9 -3 9 -12 0 -7 -7 -27 -12 -44 -12 -37 0 -74 38 -74 75 0 37 37 75
74 75 17 0 37 -5 44 -12 9 -9 12 -4 12 25 0 20 4 37 9 37 5 0 11 -45 13 -100z
m4410 61 c-3 -30 -2 -32 17 -22 54 30 111 -3 111 -64 0 -60 -57 -94 -111 -65
-13 7 -19 7 -19 0 0 -5 -4 -10 -10 -10 -6 0 -10 40 -10 101 0 76 3 100 13 96
7 -2 11 -16 9 -36z m188 -61 c0 -82 -3 -100 -15 -100 -12 0 -15 18 -15 100 0
82 3 100 15 100 12 0 15 -18 15 -100z m-5974 -7 c25 -70 30 -93 19 -93 -7 0
-17 9 -20 20 -5 16 -15 20 -50 20 -35 0 -45 -4 -50 -20 -3 -11 -13 -20 -20
-20 -14 0 -5 31 46 168 17 44 40 21 75 -75z m1711 77 c3 -11 12 -20 19 -20 8
0 14 -4 14 -10 0 -5 -7 -10 -15 -10 -17 0 -17 0 -17 -50 0 -55 1 -60 17 -60 8
0 15 -5 15 -11 0 -6 -12 -9 -27 -7 -27 3 -28 6 -31 63 -2 33 -9 63 -15 68 -9
7 -9 10 1 14 6 2 12 13 12 24 0 25 20 25 27 -1z m4633 0 c0 -13 7 -20 20 -20
11 0 20 -4 20 -10 0 -5 -9 -10 -20 -10 -18 0 -20 -7 -20 -55 0 -48 2 -55 20
-55 11 0 20 -4 20 -10 0 -14 -43 -13 -58 2 -7 7 -12 35 -12 64 0 32 -5 55 -12
58 -10 5 -10 7 0 12 6 3 12 14 12 25 0 10 7 19 15 19 8 0 15 -9 15 -20z m340
0 c0 -13 7 -20 20 -20 11 0 20 -4 20 -10 0 -5 -6 -10 -14 -10 -15 0 -23 -38
-18 -82 2 -16 9 -28 18 -28 8 0 14 -5 14 -11 0 -6 -12 -9 -27 -7 -27 3 -28 6
-31 63 -2 33 -9 63 -15 68 -9 7 -9 10 1 14 6 2 12 13 12 24 0 10 5 19 10 19 6
0 10 -9 10 -20z m-6514 -31 c9 -7 19 -7 33 0 32 18 69 13 85 -11 21 -30 22
-128 1 -128 -10 0 -15 15 -17 56 -2 41 -8 60 -21 68 -32 20 -52 -4 -55 -68 -2
-41 -7 -56 -17 -56 -12 0 -15 14 -15 60 0 56 -2 60 -27 66 -35 9 -53 -16 -53
-78 0 -36 -4 -48 -15 -48 -13 0 -15 13 -14 68 1 37 3 69 5 72 5 11 97 10 110
-1z m314 -65 l0 -70 -55 -2 c-68 -2 -95 19 -95 73 0 54 28 75 95 72 l55 -2 0
-71z m145 29 c25 -68 30 -70 50 -16 19 53 31 70 41 60 10 -10 -79 -217 -93
-217 -16 0 -16 0 1 40 12 31 11 39 -15 103 -34 81 -33 77 -15 77 7 0 21 -21
31 -47z m317 25 c27 -27 6 -39 -22 -13 -24 22 -66 13 -75 -16 -18 -56 34 -101
75 -64 28 26 49 14 22 -13 -49 -49 -126 -16 -126 53 0 69 77 102 126 53z m68
-26 c0 -61 18 -87 52 -79 28 7 38 30 38 90 0 20 5 37 10 37 6 0 10 -31 10 -73
l0 -73 -49 -2 c-67 -3 -81 13 -81 89 0 33 4 59 10 59 6 0 10 -22 10 -48z m180
-27 c0 -60 -3 -75 -15 -75 -12 0 -15 15 -15 75 0 60 3 75 15 75 12 0 15 -15
15 -75z m328 63 c9 -9 12 -9 12 0 0 7 7 12 15 12 12 0 15 -15 15 -75 0 -60 -3
-75 -15 -75 -8 0 -15 5 -15 12 0 9 -3 9 -12 0 -21 -21 -75 -15 -92 10 -21 29
-20 87 1 110 18 20 73 24 91 6z m284 -44 c3 -64 23 -88 56 -68 12 8 18 27 20
68 2 41 7 56 17 56 12 0 15 -16 15 -73 l0 -73 -55 -2 c-46 -1 -57 2 -70 21
-20 29 -21 127 0 127 10 0 15 -15 17 -56z m298 47 c0 -4 -11 -13 -25 -19 -22
-10 -25 -18 -25 -67 0 -42 -3 -55 -15 -55 -12 0 -15 15 -15 74 l0 74 40 0 c22
0 40 -3 40 -7z m140 -11 c11 -11 20 -31 20 -45 0 -24 -3 -25 -60 -25 -49 0
-58 -3 -54 -15 9 -23 52 -30 73 -11 22 20 31 20 31 1 0 -19 -31 -35 -68 -35
-38 0 -66 32 -66 75 0 19 8 43 19 55 24 26 78 27 105 0z m172 -2 c27 -27 6
-39 -22 -13 -24 22 -66 13 -75 -16 -18 -56 34 -101 75 -64 28 26 49 14 22 -13
-49 -49 -126 -16 -126 53 0 69 77 102 126 53z m68 -26 c0 -61 18 -87 52 -79
28 7 38 30 38 90 0 20 5 37 10 37 6 0 10 -31 10 -73 l0 -73 -49 -2 c-67 -3
-81 13 -81 89 0 33 4 59 10 59 6 0 10 -22 10 -48z m230 38 c0 -4 -11 -12 -25
-18 -22 -10 -25 -18 -25 -67 0 -42 -3 -55 -15 -55 -12 0 -15 15 -15 74 l0 73
40 0 c22 0 40 -3 40 -7z m124 -12 c15 -25 -1 -34 -24 -13 -19 17 -50 15 -50
-5 0 -5 17 -18 38 -27 40 -20 53 -51 28 -72 -20 -17 -77 -10 -90 11 -15 25 1
34 23 14 22 -20 56 -18 56 3 0 8 -13 19 -30 24 -54 18 -71 47 -43 75 18 18 79
11 92 -10z m166 0 c45 -49 11 -128 -55 -128 -45 0 -75 29 -75 73 0 45 31 77
75 77 22 0 41 -8 55 -22z m241 6 c15 -13 17 -13 22 1 10 24 73 20 91 -7 21
-30 22 -128 1 -128 -10 0 -15 15 -17 56 -3 64 -23 88 -55 68 -13 -8 -19 -27
-21 -68 -2 -41 -7 -56 -17 -56 -12 0 -15 14 -15 60 0 56 -2 60 -27 66 -35 9
-53 -16 -53 -78 0 -36 -4 -48 -15 -48 -13 0 -15 13 -13 73 l3 74 50 1 c31 1
56 -5 66 -14z m309 -58 l0 -71 -55 -2 c-67 -3 -95 18 -95 72 0 54 27 75 95 73
l55 -2 0 -70z m70 49 c7 -14 16 -25 20 -25 4 0 12 11 18 25 6 14 18 25 27 25
12 0 11 -7 -9 -38 l-23 -37 23 -35 c30 -44 11 -56 -22 -15 l-23 29 -12 -27
c-7 -15 -18 -27 -26 -27 -18 0 -16 10 7 40 11 14 20 30 20 35 0 6 -9 21 -20
35 -23 30 -25 40 -7 40 8 0 20 -11 27 -25z m130 -50 c0 -60 -3 -75 -15 -75
-12 0 -15 15 -15 75 0 60 3 75 15 75 12 0 15 -15 15 -75z m157 63 c10 -8 17
-8 25 0 17 17 64 15 82 -4 18 -18 23 -134 6 -134 -5 0 -10 22 -10 48 0 62 -18
87 -53 78 -25 -6 -27 -10 -27 -66 0 -46 -3 -60 -15 -60 -10 0 -15 15 -17 56
-2 41 -8 60 -20 68 -33 20 -53 -4 -56 -68 -2 -41 -7 -56 -17 -56 -12 0 -15 16
-15 74 l0 73 52 2 c28 0 57 -4 65 -11z m288 -8 c11 -12 19 -36 19 -55 0 -47
-28 -75 -74 -75 -46 0 -74 28 -74 75 0 47 28 75 74 75 24 0 43 -7 55 -20z
m299 4 c22 -22 23 -134 1 -134 -12 0 -15 13 -15 60 0 56 -2 60 -27 66 -35 9
-53 -16 -53 -78 0 -37 -4 -48 -15 -48 -13 0 -15 12 -11 73 2 39 5 72 5 72 1 1
23 2 50 3 34 1 55 -3 65 -14z m176 -4 c12 -12 20 -33 20 -55 0 -46 -29 -75
-74 -75 -39 0 -76 37 -76 75 0 12 9 34 21 49 26 33 79 36 109 6z m200 13 c0
-3 -11 -16 -25 -29 -20 -18 -25 -33 -25 -69 0 -25 -4 -45 -10 -45 -6 0 -10 31
-10 73 l0 73 35 1 c19 1 35 -1 35 -4z m136 -1 c18 -12 36 -52 30 -68 -4 -10
-22 -14 -61 -14 -56 0 -65 -6 -43 -28 17 -17 53 -15 68 3 16 19 30 19 30 0 0
-19 -31 -35 -69 -35 -34 0 -71 39 -71 75 0 37 37 75 73 75 18 0 37 -4 43 -8z
m191 -22 c18 -36 17 -120 -2 -120 -10 0 -15 15 -17 56 -2 41 -8 60 -20 68 -33
20 -53 -4 -56 -68 -2 -41 -7 -56 -17 -56 -12 0 -15 16 -15 74 l0 74 57 -1 c50
-2 59 -5 70 -27z m172 4 c12 -15 21 -37 21 -49 0 -38 -37 -75 -76 -75 -45 0
-74 29 -74 75 0 72 86 104 129 49z m86 -38 l22 -58 23 61 c12 34 29 61 36 61
18 0 19 4 -14 -76 -16 -38 -35 -70 -44 -72 -11 -2 -24 20 -46 73 -25 62 -28
76 -15 73 9 -2 25 -28 38 -62z m223 52 c9 -9 12 -9 12 0 0 7 7 12 15 12 12 0
15 -15 15 -75 0 -60 -3 -75 -15 -75 -8 0 -15 5 -15 12 0 9 -3 9 -12 0 -19 -19
-73 -14 -93 8 -11 12 -19 36 -19 55 0 19 8 43 19 55 20 22 74 27 93 8z m438 4
c18 -12 36 -52 30 -68 -4 -10 -22 -14 -61 -14 -56 0 -65 -6 -43 -28 17 -17 53
-15 68 3 16 19 30 19 30 0 0 -19 -31 -35 -69 -35 -34 0 -71 39 -71 75 0 37 37
75 73 75 18 0 37 -4 43 -8z m316 -48 c3 -64 23 -88 56 -68 12 8 18 27 20 68 2
41 7 56 17 56 12 0 15 -16 15 -74 l0 -74 -57 1 c-50 2 -59 5 -70 27 -18 36
-17 120 2 120 10 0 15 -15 17 -56z m348 -19 c0 -60 -3 -75 -15 -75 -12 0 -15
15 -15 75 0 60 3 75 15 75 12 0 15 -15 15 -75z m146 67 c18 -12 36 -52 30 -68
-4 -10 -22 -14 -61 -14 -56 0 -65 -6 -43 -28 17 -17 53 -15 68 3 16 19 30 19
30 0 0 -19 -31 -35 -69 -35 -34 0 -71 39 -71 75 0 37 37 75 73 75 18 0 37 -4
43 -8z m181 -4 c10 -8 17 -8 25 0 17 17 64 15 82 -4 18 -18 23 -134 6 -134 -5
0 -10 22 -10 48 0 62 -18 87 -53 78 -25 -6 -27 -10 -27 -66 0 -46 -3 -60 -15
-60 -10 0 -15 15 -17 56 -2 41 -8 60 -20 68 -33 20 -53 -4 -56 -68 -2 -41 -7
-56 -17 -56 -12 0 -15 16 -15 74 l0 73 52 2 c28 0 57 -4 65 -11z m193 0 c0 -9
3 -9 12 0 19 19 73 14 93 -8 11 -12 19 -36 19 -55 0 -19 -8 -43 -19 -55 -20
-22 -74 -27 -93 -8 -9 9 -12 2 -12 -35 0 -35 -4 -47 -15 -47 -12 0 -15 19 -15
110 0 91 3 110 15 110 8 0 15 -5 15 -12z m279 -14 c12 -15 21 -37 21 -49 0
-38 -37 -75 -76 -75 -45 0 -74 29 -74 75 0 72 86 104 129 49z m-3309 -93 c0
-19 -23 -71 -31 -71 -12 0 -11 22 1 54 9 24 30 36 30 17z m1930 2 c0 -16 -25
-73 -32 -73 -11 0 -10 23 2 54 8 23 30 37 30 19z m1453 -18 c1 -5 -6 -11 -15
-13 -11 -2 -18 3 -18 13 0 17 30 18 33 0z"/>
<path d="M3613 7465 c-44 -20 -53 -28 -53 -50 0 -29 6 -29 88 6 34 15 42 23
42 44 0 31 -10 31 -77 0z"/>
<path d="M5533 7464 c-44 -19 -53 -28 -53 -49 0 -30 4 -31 69 -4 45 19 51 25
51 50 0 34 0 34 -67 3z"/>
<path d="M5471 7332 c-64 -11 -104 -72 -103 -158 0 -28 7 -65 16 -82 43 -83
142 -97 198 -28 17 21 18 21 18 -11 0 -33 0 -33 50 -33 l50 0 0 155 0 155 -50
0 c-49 0 -50 -1 -50 -30 l0 -30 -27 29 c-29 30 -61 41 -102 33z m103 -93 c20
-15 26 -29 26 -58 0 -52 -23 -81 -65 -81 -70 0 -101 85 -50 135 30 30 54 31
89 4z"/>
<path d="M5489 7204 c-18 -48 12 -91 56 -80 30 8 42 47 26 82 -16 35 -68 34
-82 -2z"/>
<path d="M6196 7458 c-22 -32 0 -63 44 -63 44 0 66 31 44 63 -10 14 -26 22
-44 22 -18 0 -34 -8 -44 -22z"/>
<path d="M6190 7175 l0 -155 50 0 50 0 0 155 0 155 -50 0 -50 0 0 -155z"/>
<path d="M4710 7355 c0 -47 -2 -85 -5 -85 -3 0 -18 14 -33 31 -23 26 -36 32
-70 32 -79 0 -132 -61 -132 -151 0 -101 50 -162 134 -162 31 0 45 7 72 36 l34
35 0 -35 c0 -36 0 -36 45 -36 l45 0 0 210 0 210 -45 0 -45 0 0 -85z m-46 -106
c70 -32 46 -149 -30 -149 -68 0 -98 98 -43 143 25 20 39 21 73 6z"/>
<path d="M4602 7218 c-7 -7 -12 -26 -12 -43 0 -17 5 -36 12 -43 29 -29 78 0
78 47 0 32 -16 51 -45 51 -12 0 -26 -5 -33 -12z"/>
<path d="M4205 7329 c-135 -32 -159 -229 -35 -291 77 -39 187 -8 222 62 45 88
-2 208 -86 225 -17 4 -38 8 -46 10 -8 1 -33 -1 -55 -6z m84 -86 c33 -27 38
-82 11 -116 -33 -41 -84 -37 -109 10 -18 35 -13 72 14 98 29 29 55 32 84 8z"/>
<path d="M4214 7206 c-14 -57 17 -103 54 -80 21 13 28 70 11 90 -19 23 -58 18
-65 -10z"/>
<path d="M6380 7230 l0 -210 45 0 45 0 0 210 0 210 -45 0 -45 0 0 -210z"/>
<path d="M2930 7220 l0 -200 45 0 44 0 3 112 c2 64 7 113 13 115 6 2 28 -49
50 -112 l40 -116 39 3 39 3 40 112 c22 62 44 110 48 107 5 -3 9 -54 9 -115 l0
-109 50 0 50 0 0 200 0 201 -62 -3 -62 -3 -52 -138 c-29 -77 -55 -141 -57
-144 -3 -2 -17 29 -32 69 -16 40 -41 105 -56 143 l-28 70 -60 3 -61 3 0 -201z"/>
<path d="M3870 7370 c0 -33 -3 -40 -20 -40 -16 0 -20 -7 -20 -35 0 -28 4 -35
20 -35 18 0 20 -7 21 -67 0 -94 16 -134 59 -155 19 -10 50 -18 68 -18 31 0 32
2 32 39 0 36 -3 40 -27 43 -28 3 -28 4 -31 81 l-3 77 31 0 c28 0 30 3 30 35 0
32 -2 35 -30 35 -28 0 -30 2 -30 40 l0 40 -50 0 -50 0 0 -40z"/>
<path d="M3583 7328 c-75 -16 -120 -87 -110 -175 9 -87 73 -137 165 -130 55 4
93 25 120 65 14 22 14 22 -41 22 -31 0 -59 -4 -62 -10 -3 -5 -19 -10 -35 -10
-31 0 -60 30 -60 62 0 16 11 18 110 18 l110 0 0 25 c0 95 -88 155 -197 133z
m87 -78 c38 -38 27 -50 -45 -50 -71 0 -79 9 -43 47 26 28 61 30 88 3z"/>
<path d="M3595 7230 c-4 -6 8 -10 30 -10 22 0 34 4 30 10 -3 6 -17 10 -30 10
-13 0 -27 -4 -30 -10z"/>
<path d="M3590 7131 c0 -12 37 -24 50 -16 20 12 10 25 -20 25 -16 0 -30 -4
-30 -9z"/>
<path d="M4993 7330 c-52 -12 -83 -38 -105 -87 -49 -112 25 -223 149 -223 91
0 155 63 157 152 1 112 -90 185 -201 158z m84 -92 c49 -46 21 -138 -42 -138
-42 0 -65 29 -65 82 0 68 61 100 107 56z"/>
<path d="M5000 7211 c-25 -47 0 -98 43 -87 32 8 45 46 28 82 -13 30 -56 33
-71 5z"/>
<path d="M5866 7330 c-85 -26 -122 -138 -77 -237 22 -48 62 -73 117 -73 29 0
44 7 70 36 l34 35 0 -54 c0 -67 -21 -98 -68 -99 -17 -1 -41 7 -51 16 -13 12
-32 16 -64 14 l-46 -3 16 -34 c32 -64 158 -93 232 -53 63 34 71 63 71 269 l0
183 -45 0 c-44 0 -45 -1 -45 -32 l0 -32 -29 32 c-17 17 -37 32 -45 32 -8 0
-20 2 -28 4 -7 2 -26 0 -42 -4z m119 -95 c49 -48 17 -135 -49 -135 -98 0 -91
156 7 159 10 1 29 -10 42 -24z"/>
<path d="M5902 7218 c-17 -17 -15 -64 4 -82 33 -34 74 -12 74 39 0 36 -15 55
-45 55 -12 0 -26 -5 -33 -12z"/>
<path d="M5932 7003 c-35 -12 -41 -18 -31 -29 24 -29 67 -15 82 29 7 20 7 20
-51 0z"/>
<path d="M7737 6343 c-14 -13 -6 -23 18 -23 16 0 25 6 25 15 0 15 -31 21 -43
8z"/>
<path d="M7940 6336 c0 -11 9 -16 26 -16 31 0 28 23 -4 28 -15 2 -22 -2 -22
-12z"/>
<path d="M7280 6353 c0 -20 4 -24 22 -21 33 4 35 34 3 40 -21 4 -25 2 -25 -19z"/>
<path d="M8073 6373 c-15 -5 -18 -43 -4 -43 5 0 16 -3 25 -6 13 -5 16 1 16 25
0 30 -9 36 -37 24z"/>
<path d="M4593 5804 c-15 -24 -15 -29 -2 -53 17 -31 50 -38 73 -16 21 22 20
58 -2 78 -26 24 -49 21 -69 -9z"/>
<path d="M4046 5814 c-19 -18 -21 -65 -4 -82 7 -7 21 -12 33 -12 30 0 45 19
45 57 0 47 -43 69 -74 37z"/>
<path d="M4357 5812 c-22 -24 -21 -55 1 -75 24 -22 45 -21 65 1 22 24 21 55
-1 75 -24 22 -45 21 -65 -1z"/>
<path d="M4816 5814 c-32 -31 -10 -94 33 -94 26 0 41 20 41 55 0 51 -41 73
-74 39z"/>
<path d="M5178 5819 c-21 -12 -24 -69 -6 -87 7 -7 21 -12 33 -12 30 0 45 19
45 57 0 44 -34 64 -72 42z"/>
<path d="M5033 5334 c-15 -24 -15 -29 -2 -53 27 -48 89 -31 89 24 0 53 -58 73
-87 29z"/>
<path d="M4021 5349 c-17 -50 -14 -59 20 -59 32 0 33 2 8 68 -11 29 -15 28
-28 -9z"/>
<path d="M4243 5334 c-15 -24 -15 -29 -2 -53 17 -31 50 -38 73 -16 21 22 20
58 -2 78 -26 24 -49 21 -69 -9z"/>
<path d="M4602 5348 c-21 -21 -14 -28 29 -28 33 0 40 3 37 18 -4 21 -48 28
-66 10z"/>
<path d="M5267 5353 c-19 -19 -5 -33 33 -33 41 0 49 7 28 28 -13 13 -50 16
-61 5z"/>
<path d="M1397 3972 c-22 -24 -21 -55 1 -75 24 -22 45 -21 65 1 21 23 21 41 1
70 -18 27 -45 28 -67 4z"/>
<path d="M1181 3979 c-17 -50 -14 -59 20 -59 32 0 33 2 8 68 -11 29 -15 28
-28 -9z"/>
<path d="M1627 3972 c-22 -24 -21 -55 1 -75 24 -22 45 -21 65 1 21 23 21 41 1
70 -18 27 -45 28 -67 4z"/>
<path d="M1863 3964 c-15 -24 -15 -29 -2 -53 17 -31 50 -38 73 -16 21 22 20
58 -2 78 -26 24 -49 21 -69 -9z"/>
<path d="M2213 3964 c-15 -24 -15 -29 -2 -53 27 -48 89 -31 89 24 0 53 -58 73
-87 29z"/>
<path d="M7401 3749 c-17 -50 -14 -59 20 -59 32 0 33 2 8 68 -11 29 -15 28
-28 -9z"/>
<path d="M7851 3749 c-17 -50 -14 -59 20 -59 32 0 33 2 8 68 -11 29 -15 28
-28 -9z"/>
<path d="M8060 3774 c0 -34 1 -35 31 -32 63 6 61 68 -2 68 -27 0 -29 -3 -29
-36z"/>
<path d="M6847 3753 c-19 -19 -5 -33 33 -33 41 0 49 7 28 28 -13 13 -50 16
-61 5z"/>
<path d="M7053 3734 c-15 -24 -15 -29 -2 -53 27 -48 89 -31 89 24 0 53 -58 73
-87 29z"/>
<path d="M3800 3660 c0 -5 5 -10 10 -10 6 0 10 5 10 10 0 6 -4 10 -10 10 -5 0
-10 -4 -10 -10z"/>
<path d="M3570 3530 c0 -5 5 -10 10 -10 6 0 10 5 10 10 0 6 -4 10 -10 10 -5 0
-10 -4 -10 -10z"/>
<path d="M1507 3513 c-19 -19 -5 -33 33 -33 41 0 49 7 28 28 -13 13 -50 16
-61 5z"/>
<path d="M1812 3508 c-7 -7 -12 -26 -12 -43 0 -17 5 -36 12 -43 28 -28 78 -1
78 43 0 44 -50 71 -78 43z"/>
<path d="M2167 3502 c-22 -24 -21 -55 1 -75 24 -22 45 -21 65 1 21 23 21 41 1
70 -18 27 -45 28 -67 4z"/>
<path d="M3480 1524 c0 -34 1 -35 31 -32 63 6 61 68 -2 68 -27 0 -29 -3 -29
-36z"/>
<path d="M3702 1498 c-21 -21 -13 -28 33 -28 25 0 45 4 45 8 0 15 -24 32 -45
32 -12 0 -26 -5 -33 -12z"/>
<path d="M4188 1499 c-21 -12 -24 -69 -6 -87 7 -7 21 -12 33 -12 30 0 45 19
45 57 0 44 -34 64 -72 42z"/>
<path d="M4408 1499 c-21 -12 -24 -69 -6 -87 7 -7 21 -12 33 -12 30 0 45 19
45 57 0 44 -34 64 -72 42z"/>
<path d="M5177 1503 c-19 -19 -5 -33 33 -33 41 0 49 7 28 28 -13 13 -50 16
-61 5z"/>
<path d="M5746 1495 c-32 -33 -10 -95 34 -95 11 0 27 11 36 24 32 50 -29 112
-70 71z"/>
<path d="M2206 554 c-34 -33 -7 -98 37 -92 12 2 28 15 36 29 13 24 13 29 -2
53 -20 29 -48 34 -71 10z"/>
<path d="M6740 555 c-7 -8 -12 -27 -12 -41 0 -67 84 -72 90 -6 2 18 -2 40 -9
48 -15 18 -53 18 -69 -1z"/>
<path d="M867 547 l-16 -47 30 0 c33 0 37 15 15 65 l-12 30 -17 -48z"/>
<path d="M1318 559 c-27 -15 -24 -75 3 -90 35 -18 69 3 69 44 0 51 -31 71 -72
46z"/>
<path d="M2383 544 c-15 -24 -15 -29 -2 -53 28 -50 89 -31 89 29 0 51 -58 67
-87 24z"/>
<path d="M3094 553 c-17 -17 -16 -18 25 -21 50 -4 59 1 41 23 -17 20 -44 19
-66 -2z"/>
<path d="M3851 556 c-17 -20 -10 -77 11 -89 12 -8 24 -7 42 1 20 9 26 19 26
45 0 18 -5 38 -12 45 -16 16 -53 15 -67 -2z"/>
<path d="M4382 558 c-7 -7 -12 -27 -12 -45 0 -26 6 -36 26 -45 18 -8 30 -9 42
-1 21 12 28 69 11 89 -14 17 -51 18 -67 2z"/>
<path d="M5046 554 c-32 -31 -10 -94 33 -94 23 0 51 31 51 57 0 23 -29 53 -53
53 -8 0 -23 -7 -31 -16z"/>
<path d="M5526 554 c-34 -33 -7 -98 37 -92 12 2 28 15 36 29 13 24 13 29 -2
53 -20 29 -48 34 -71 10z"/>
<path d="M5872 558 c-21 -21 -13 -28 33 -28 25 0 45 4 45 8 0 15 -24 32 -45
32 -12 0 -26 -5 -33 -12z"/>
<path d="M6213 544 c-15 -24 -15 -29 -2 -53 27 -48 89 -31 89 24 0 53 -58 73
-87 29z"/>
<path d="M6547 552 c-22 -24 -21 -55 1 -75 35 -32 82 -10 82 38 0 49 -52 71
-83 37z"/>
<path d="M6982 558 c-21 -21 -13 -28 33 -28 25 0 45 4 45 8 0 15 -24 32 -45
32 -12 0 -26 -5 -33 -12z"/>
<path d="M7792 558 c-21 -21 -13 -28 33 -28 25 0 45 4 45 8 0 15 -24 32 -45
32 -12 0 -26 -5 -33 -12z"/>
<path d="M8256 554 c-32 -31 -10 -94 33 -94 23 0 51 31 51 57 0 23 -29 53 -53
53 -8 0 -23 -7 -31 -16z"/>
<path d="M8423 544 c-15 -24 -15 -29 -2 -53 27 -48 89 -31 89 24 0 53 -58 73
-87 29z"/>
</g>
</svg>
